<?xml version="1.0" encoding="utf-8"?>
<svg version="1.1" xmlns:xlink="http://www.w3.org/1999/xlink" width="40px" height="42px" xmlns="http://www.w3.org/2000/svg">
  <g transform="matrix(1 0 0 1 -890 -1156 )">
    <path d="M 29.0625 36.86578449905482  L 27.33173076923077 25.724007561436675  L 34.6875 17.863894139886575  L 24.54326923076923 16.22306238185255  L 20 6.1134215500945155  L 15.456730769230768 16.22306238185255  L 5.3125 17.863894139886575  L 12.668269230769232 25.724007561436675  L 10.913461538461537 36.86578449905482  L 20 31.599243856332702  L 29.0625 36.86578449905482  Z M 38.65384615384615 15.058601134215502  C 39.55128205128205 15.217391304347828  40 15.623188405797102  40 16.27599243856333  C 40 16.664146187775675  39.79166666666667 17.087586641461872  39.375 17.546313799621927  L 30.649038461538463 26.91493383742911  L 32.71634615384615 40.14744801512287  C 32.732371794871796 40.27095148078135  32.74038461538461 40.44738500315059  32.74038461538461 40.67674858223062  C 32.74038461538461 41.55891619407687  32.41185897435898 42  31.754807692307693 42  C 31.450320512820515 42  31.129807692307693 41.89413988657845  30.79326923076923 41.68241965973535  L 20 35.43667296786389  L 9.206730769230768 41.68241965973535  C 8.854166666666668 41.89413988657845  8.533653846153847 42  8.245192307692307 42  C 7.908653846153846 42  7.65625 41.8720856962823  7.487980769230768 41.61625708884688  C 7.319711538461538 41.36042848141147  7.235576923076923 41.04725897920605  7.235576923076923 40.67674858223062  C 7.235576923076923 40.57088846880907  7.251602564102565 40.39445494643982  7.283653846153846 40.14744801512287  L 9.350961538461538 26.91493383742911  L 0.6009615384615384 17.546313799621927  C 0.2003205128205128 17.069943289224952  0 16.646502835538755  0 16.27599243856333  C 0 15.623188405797102  0.4487179487179487 15.217391304347828  1.346153846153846 15.058601134215502  L 13.413461538461537 13.12665406427221  L 18.822115384615387 1.0850661625708864  C 19.126602564102566 0.3616887208569606  19.51923076923077 0  20 0  C 20.48076923076923 0  20.873397435897438 0.3616887208569606  21.177884615384617 1.0850661625708864  L 26.586538461538463 13.12665406427221  L 38.65384615384615 15.058601134215502  Z " fill-rule="nonzero" fill="#000000" stroke="none" transform="matrix(1 0 0 1 890 1156 )" />
  </g>
</svg>