<?xml version="1.0" encoding="utf-8"?>
<svg version="1.1" xmlns:xlink="http://www.w3.org/1999/xlink" width="51px" height="25px" xmlns="http://www.w3.org/2000/svg">
  <defs>
    <mask fill="white" id="clip12">
      <path d="M 0 14.583333333333334  L 0 10.416666666666668  C 0 4.583333333333309  3.868965517241378 0  8.793103448275863 0  L 17.293103448276927 0  L 42.206896551724135 0  C 47.131034482758615 0  51 4.583333333333309  51 10.416666666666668  L 51 14.583333333333334  C 51 20.416666666666693  47.131034482758615 25  42.206896551724135 25  L 8.793103448275863 25  C 3.868965517241378 25  0 20.416666666666693  0 14.583333333333334  Z " fill-rule="evenodd" />
    </mask>
  </defs>
  <g transform="matrix(1 0 0 1 -12 -258 )">
    <path d="M 0 14.583333333333334  L 0 10.416666666666668  C 0 4.583333333333309  3.868965517241378 0  8.793103448275863 0  L 17.293103448276927 0  L 42.206896551724135 0  C 47.131034482758615 0  51 4.583333333333309  51 10.416666666666668  L 51 14.583333333333334  C 51 20.416666666666693  47.131034482758615 25  42.206896551724135 25  L 8.793103448275863 25  C 3.868965517241378 25  0 20.416666666666693  0 14.583333333333334  Z " fill-rule="nonzero" fill="#ffffff" stroke="none" transform="matrix(1 0 0 1 12 258 )" />
    <path d="M 0 14.583333333333334  L 0 10.416666666666668  C 0 4.583333333333309  3.868965517241378 0  8.793103448275863 0  L 17.293103448276927 0  L 42.206896551724135 0  C 47.131034482758615 0  51 4.583333333333309  51 10.416666666666668  L 51 14.583333333333334  C 51 20.416666666666693  47.131034482758615 25  42.206896551724135 25  L 8.793103448275863 25  C 3.868965517241378 25  0 20.416666666666693  0 14.583333333333334  Z " stroke-width="2" stroke="#797979" fill="none" transform="matrix(1 0 0 1 12 258 )" mask="url(#clip12)" />
  </g>
</svg>